<?xml version="1.0" encoding="UTF-8" standalone="no"?>
<!DOCTYPE svg PUBLIC "-//W3C//DTD SVG 1.1//EN" "http://www.w3.org/Graphics/SVG/1.1/DTD/svg11.dtd">
<svg xmlns="http://www.w3.org/2000/svg" xmlns:xlink="http://www.w3.org/1999/xlink" version="1.1" width="842pt" height="595pt" viewBox="0 0 842 595">
	<path transform="matrix(.06,0,0,-.06,0,595)" stroke-width="17" stroke-linecap="round" stroke-linejoin="round" fill="none" stroke="#000000" d="M 2690 7579 L 2690 7324 L 2511 7324 L 2511 7579 L 2690 7579 "/>
	<path transform="matrix(.06,0,0,-.06,0,595)" stroke-width="17" stroke-linecap="round" stroke-linejoin="round" fill="none" stroke="#000000" d="M 1643 6406 L 1878 6458 L 1902 6218 "/>
	<path transform="matrix(.06,0,0,-.06,0,595)" stroke-width="17" stroke-linecap="round" stroke-linejoin="round" fill="none" stroke="#000000" d="M 1310.3995 6865.178 C 1389.4044 6691.637 1502.61 6535.8205 1643.2406 6407.0524 "/>
	<path transform="matrix(.06,0,0,-.06,0,595)" stroke-width="17" stroke-linecap="round" stroke-linejoin="round" fill="none" stroke="#000000" d="M 1212 7169 L 1432 7072 L 1310 6864 "/>
	<path transform="matrix(.06,0,0,-.06,0,595)" stroke-width="17" stroke-linecap="round" stroke-linejoin="round" fill="none" stroke="#000000" d="M 1211.5514 7735.569 C 1173.4829 7548.776 1173.4829 7356.224 1211.5514 7169.431 "/>
	<path transform="matrix(.06,0,0,-.06,0,595)" stroke-width="17" stroke-linecap="round" stroke-linejoin="round" fill="none" stroke="#000000" d="M 1310 8039 L 1432 7832 L 1212 7735 "/>
	<path transform="matrix(.06,0,0,-.06,0,595)" stroke-width="17" stroke-linecap="round" stroke-linejoin="round" fill="none" stroke="#000000" d="M 1643.2406 8497.947 C 1502.61 8369.18 1389.4044 8213.362 1310.3995 8039.822 "/>
	<path transform="matrix(.06,0,0,-.06,0,595)" stroke-width="17" stroke-linecap="round" stroke-linejoin="round" fill="none" stroke="#000000" d="M 1902 8686 L 1878 8446 L 1643 8497 "/>
	<path transform="matrix(.06,0,0,-.06,0,595)" stroke-width="17" stroke-linecap="round" stroke-linejoin="round" fill="none" stroke="#000000" d="M 2440.6136 8860.954 C 2251.1524 8839.446 2067.9779 8779.936 1902.0534 8685.982 "/>
	<path transform="matrix(.06,0,0,-.06,0,595)" stroke-width="17" stroke-linecap="round" stroke-linejoin="round" fill="none" stroke="#000000" d="M 2760 8861 L 2600 8681 L 2441 8861 "/>
	<path transform="matrix(.06,0,0,-.06,0,595)" stroke-width="17" stroke-linecap="round" stroke-linejoin="round" fill="none" stroke="#000000" d="M 3298.9468 8685.982 C 3133.0223 8779.936 2949.8477 8839.446 2760.3865 8860.954 "/>
	<path transform="matrix(.06,0,0,-.06,0,595)" stroke-width="17" stroke-linecap="round" stroke-linejoin="round" fill="none" stroke="#000000" d="M 3558 8497 L 3322 8446 L 3299 8686 "/>
	<path transform="matrix(.06,0,0,-.06,0,595)" stroke-width="17" stroke-linecap="round" stroke-linejoin="round" fill="none" stroke="#000000" d="M 3890.6004 8039.822 C 3811.5955 8213.362 3698.3902 8369.18 3557.7593 8497.947 "/>
	<path transform="matrix(.06,0,0,-.06,0,595)" stroke-width="17" stroke-linecap="round" stroke-linejoin="round" fill="none" stroke="#000000" d="M 3989 7735 L 3769 7832 L 3890 8039 "/>
	<path transform="matrix(.06,0,0,-.06,0,595)" stroke-width="17" stroke-linecap="round" stroke-linejoin="round" fill="none" stroke="#000000" d="M 3989.4488 7169.431 C 4027.517 7356.224 4027.517 7548.776 3989.4488 7735.569 "/>
	<path transform="matrix(.06,0,0,-.06,0,595)" stroke-width="17" stroke-linecap="round" stroke-linejoin="round" fill="none" stroke="#000000" d="M 3890 6864 L 3769 7072 L 3989 7169 "/>
	<path transform="matrix(.06,0,0,-.06,0,595)" stroke-width="17" stroke-linecap="round" stroke-linejoin="round" fill="none" stroke="#000000" d="M 3557.7593 6407.0524 C 3698.3902 6535.8205 3811.5955 6691.637 3890.6004 6865.178 "/>
	<path transform="matrix(.06,0,0,-.06,0,595)" stroke-width="17" stroke-linecap="round" stroke-linejoin="round" fill="none" stroke="#000000" d="M 3299 6218 L 3322 6458 L 3558 6406 "/>
	<path transform="matrix(.06,0,0,-.06,0,595)" stroke-width="17" stroke-linecap="round" stroke-linejoin="round" fill="none" stroke="#000000" d="M 2760.3865 6044.046 C 2949.8477 6065.5539 3133.0223 6125.0646 3298.9468 6219.0178 "/>
	<path transform="matrix(.06,0,0,-.06,0,595)" stroke-width="17" stroke-linecap="round" stroke-linejoin="round" fill="none" stroke="#000000" d="M 2441 6043 L 2600 6223 L 2760 6043 "/>
	<path transform="matrix(.06,0,0,-.06,0,595)" stroke-width="17" stroke-linecap="round" stroke-linejoin="round" fill="none" stroke="#000000" d="M 1902.0534 6219.0178 C 2067.9779 6125.0646 2251.1524 6065.5539 2440.6136 6044.046 "/>
	<path transform="matrix(.06,0,0,-.06,0,595)" stroke-width="17" stroke-linecap="round" stroke-linejoin="round" fill="none" stroke="#000000" d="M 5673 7704 L 5673 7449 L 5494 7449 L 5494 7704 L 5673 7704 "/>
	<path transform="matrix(.06,0,0,-.06,0,595)" stroke-width="17" stroke-linecap="round" stroke-linejoin="round" fill="none" stroke="#000000" d="M 4626 6531 L 4862 6582 L 4885 6342 "/>
	<path transform="matrix(.06,0,0,-.06,0,595)" stroke-width="17" stroke-linecap="round" stroke-linejoin="round" fill="none" stroke="#000000" d="M 4294.3996 6989.178 C 4373.4045 6815.637 4486.61 6659.8205 4627.2409 6531.0524 "/>
	<path transform="matrix(.06,0,0,-.06,0,595)" stroke-width="17" stroke-linecap="round" stroke-linejoin="round" fill="none" stroke="#000000" d="M 4195 7293 L 4415 7196 L 4294 6989 "/>
	<path transform="matrix(.06,0,0,-.06,0,595)" stroke-width="17" stroke-linecap="round" stroke-linejoin="round" fill="none" stroke="#000000" d="M 4195.5515 7859.569 C 4157.483 7672.776 4157.483 7480.224 4195.5515 7293.431 "/>
	<path transform="matrix(.06,0,0,-.06,0,595)" stroke-width="17" stroke-linecap="round" stroke-linejoin="round" fill="none" stroke="#000000" d="M 4294 8164 L 4415 7956 L 4195 7859 "/>
	<path transform="matrix(.06,0,0,-.06,0,595)" stroke-width="17" stroke-linecap="round" stroke-linejoin="round" fill="none" stroke="#000000" d="M 4627.2409 8621.947 C 4486.61 8493.18 4373.4045 8337.362 4294.3996 8163.822 "/>
	<path transform="matrix(.06,0,0,-.06,0,595)" stroke-width="17" stroke-linecap="round" stroke-linejoin="round" fill="none" stroke="#000000" d="M 4885 8810 L 4862 8570 L 4626 8622 "/>
	<path transform="matrix(.06,0,0,-.06,0,595)" stroke-width="17" stroke-linecap="round" stroke-linejoin="round" fill="none" stroke="#000000" d="M 5424.614 8984.954 C 5235.1525 8963.446 5051.978 8903.936 4886.053 8809.982 "/>
	<path transform="matrix(.06,0,0,-.06,0,595)" stroke-width="17" stroke-linecap="round" stroke-linejoin="round" fill="none" stroke="#000000" d="M 5743 8985 L 5584 8805 L 5424 8985 "/>
	<path transform="matrix(.06,0,0,-.06,0,595)" stroke-width="17" stroke-linecap="round" stroke-linejoin="round" fill="none" stroke="#000000" d="M 6282.947 8809.982 C 6117.022 8903.936 5933.8479 8963.446 5744.386 8984.954 "/>
	<path transform="matrix(.06,0,0,-.06,0,595)" stroke-width="17" stroke-linecap="round" stroke-linejoin="round" fill="none" stroke="#000000" d="M 6541 8622 L 6306 8570 L 6282 8810 "/>
	<path transform="matrix(.06,0,0,-.06,0,595)" stroke-width="17" stroke-linecap="round" stroke-linejoin="round" fill="none" stroke="#000000" d="M 6874.6008 8163.822 C 6795.5959 8337.362 6682.39 8493.18 6541.7595 8621.947 "/>
	<path transform="matrix(.06,0,0,-.06,0,595)" stroke-width="17" stroke-linecap="round" stroke-linejoin="round" fill="none" stroke="#000000" d="M 6972 7859 L 6752 7956 L 6874 8164 "/>
	<path transform="matrix(.06,0,0,-.06,0,595)" stroke-width="17" stroke-linecap="round" stroke-linejoin="round" fill="none" stroke="#000000" d="M 6973.4489 7293.431 C 7011.517 7480.224 7011.517 7672.776 6973.4489 7859.569 "/>
	<path transform="matrix(.06,0,0,-.06,0,595)" stroke-width="17" stroke-linecap="round" stroke-linejoin="round" fill="none" stroke="#000000" d="M 6874 6989 L 6752 7196 L 6972 7293 "/>
	<path transform="matrix(.06,0,0,-.06,0,595)" stroke-width="17" stroke-linecap="round" stroke-linejoin="round" fill="none" stroke="#000000" d="M 6541.7595 6531.0524 C 6682.39 6659.8205 6795.5959 6815.637 6874.6008 6989.178 "/>
	<path transform="matrix(.06,0,0,-.06,0,595)" stroke-width="17" stroke-linecap="round" stroke-linejoin="round" fill="none" stroke="#000000" d="M 6282 6342 L 6306 6582 L 6541 6531 "/>
	<path transform="matrix(.06,0,0,-.06,0,595)" stroke-width="17" stroke-linecap="round" stroke-linejoin="round" fill="none" stroke="#000000" d="M 5744.386 6168.046 C 5933.8479 6189.5539 6117.022 6249.0646 6282.947 6343.0178 "/>
	<path transform="matrix(.06,0,0,-.06,0,595)" stroke-width="17" stroke-linecap="round" stroke-linejoin="round" fill="none" stroke="#000000" d="M 5424 6167 L 5584 6347 L 5743 6167 "/>
	<path transform="matrix(.06,0,0,-.06,0,595)" stroke-width="17" stroke-linecap="round" stroke-linejoin="round" fill="none" stroke="#000000" d="M 4886.053 6343.0178 C 5051.978 6249.0646 5235.1525 6189.5539 5424.614 6168.046 "/>
</svg>
